<svg width="30" height="30" viewBox="0 0 30 30" fill="none" xmlns="http://www.w3.org/2000/svg">
<path d="M29.8606 28.0642C29.8246 28.014 26.2501 22.95 26.2501 18.75V11.25C26.2501 8.26631 25.0648 5.40483 22.955 3.29505C20.8452 1.18526 17.9838 0 15.0001 0C12.0164 0 9.15491 1.18526 7.04512 3.29505C4.93534 5.40483 3.75007 8.26631 3.75007 11.25V18.75C3.75007 22.95 0.175573 28.014 0.139573 28.0642C0.0595164 28.1764 0.0119026 28.3084 0.00195664 28.4459C-0.00798928 28.5833 0.0201173 28.7208 0.0831915 28.8433C0.146266 28.9658 0.241869 29.0686 0.35951 29.1403C0.477151 29.2121 0.612282 29.25 0.750073 29.25H29.2501C29.3879 29.25 29.523 29.2121 29.6406 29.1403C29.7583 29.0686 29.8539 28.9658 29.917 28.8433C29.98 28.7208 30.0081 28.5833 29.9982 28.4459C29.9882 28.3084 29.9406 28.1764 29.8606 28.0642Z" fill="white"/>
</svg>
