<svg width="17" height="16" viewBox="0 0 17 16" fill="none" xmlns="http://www.w3.org/2000/svg">
<path d="M2.70991 2H13.5495C13.9089 2 14.2535 2.14048 14.5076 2.39052C14.7617 2.64057 14.9045 2.97971 14.9045 3.33333V7.33333C14.9045 9.10144 14.1907 10.7971 12.9202 12.0474C11.6497 13.2976 9.92651 14 8.12973 14C7.24005 14 6.35908 13.8276 5.53713 13.4925C4.71518 13.1575 3.96833 12.6664 3.33924 12.0474C2.06872 10.7971 1.35495 9.10144 1.35495 7.33333V3.33333C1.35495 2.97971 1.4977 2.64057 1.75181 2.39052C2.00591 2.14048 2.35055 2 2.70991 2V2Z" stroke="#487FD9" stroke-width="2" stroke-linecap="round" stroke-linejoin="round"/>
<path d="M5.4198 6.66666L8.12971 9.33332L10.8396 6.66666" stroke="#487FD9" stroke-width="2" stroke-linecap="round" stroke-linejoin="round"/>
</svg>
