<svg width="36" height="28" viewBox="0 0 36 28" fill="none" xmlns="http://www.w3.org/2000/svg">
<path d="M36 9.5V1.625C36 1.32663 35.8815 1.04048 35.6705 0.829505C35.4595 0.618527 35.1734 0.5 34.875 0.5H1.125C0.826631 0.5 0.540483 0.618527 0.329505 0.829505C0.118526 1.04048 0 1.32663 0 1.625L0 9.5C1.19347 9.5 2.33807 9.97411 3.18198 10.818C4.02589 11.6619 4.5 12.8065 4.5 14C4.5 15.1935 4.02589 16.3381 3.18198 17.182C2.33807 18.0259 1.19347 18.5 0 18.5L0 26.375C0 26.6734 0.118526 26.9595 0.329505 27.1705C0.540483 27.3815 0.826631 27.5 1.125 27.5H34.875C35.1734 27.5 35.4595 27.3815 35.6705 27.1705C35.8815 26.9595 36 26.6734 36 26.375V18.5C34.8065 18.5 33.6619 18.0259 32.818 17.182C31.9741 16.3381 31.5 15.1935 31.5 14C31.5 12.8065 31.9741 11.6619 32.818 10.818C33.6619 9.97411 34.8065 9.5 36 9.5ZM25.875 18.5H10.125V16.25H25.875V18.5ZM25.875 11.75H10.125V9.5H25.875V11.75Z" fill="white"/>
</svg>
